<?xml version="1.0" standalone="no"?>
<!DOCTYPE svg PUBLIC "-//W3C//DTD SVG 20010904//EN"
 "http://www.w3.org/TR/2001/REC-SVG-20010904/DTD/svg10.dtd">
<svg version="1.0" xmlns="http://www.w3.org/2000/svg"
 width="640.000000pt" height="640.000000pt" viewBox="0 0 640.000000 640.000000"
 preserveAspectRatio="xMidYMid meet">

<g transform="translate(0.000000,640.000000) scale(0.100000,-0.100000)"
fill="#000000" stroke="none">
<path d="M2995 6394 c-447 -35 -841 -143 -1226 -336 -308 -154 -585 -353 -829
-598 -573 -573 -901 -1324 -936 -2144 l-7 -156 1001 0 1002 0 0 458 c0 565 9
666 81 884 125 382 439 700 819 830 170 58 259 72 450 72 144 0 193 -3 275
-21 265 -58 470 -165 658 -343 201 -191 344 -449 393 -713 8 -45 17 -89 20
-98 2 -9 174 -128 382 -265 524 -346 527 -348 525 -358 -1 -4 -201 -142 -445
-306 l-443 -298 -6 -284 c-6 -260 -23 -455 -49 -573 -5 -22 -19 -87 -30 -145
-84 -407 -282 -835 -558 -1206 -191 -257 -468 -518 -747 -704 -60 -40 -114
-78 -120 -83 -13 -12 233 -1 385 19 596 75 1154 312 1625 690 494 396 881 983
1060 1604 85 297 119 544 119 880 0 273 -12 397 -61 640 -98 489 -326 973
-649 1375 -113 141 -328 356 -469 469 -473 379 -1021 612 -1630 691 -115 16
-486 27 -590 19z"/>
<path d="M3300 4045 c-82 -17 -124 -39 -174 -88 -76 -77 -115 -194 -95 -288
29 -136 102 -221 219 -259 167 -54 336 17 409 170 37 79 37 201 0 280 -65 138
-215 215 -359 185z"/>
</g>
</svg>
